<svg xmlns="http://www.w3.org/2000/svg" viewBox="0 0 760 170" role="img" aria-labelledby="title desc">
  <title id="title">APS Project Management</title>
  <desc id="desc">Logo APS màu đỏ đô và biểu tượng mũi tên chấm tròn màu vàng.</desc>
  <g fill="#861b36">
    <path d="M18 119 70 20h30l53 99h-34l-10-21H61l-10 21H18Zm56-47h23L85 48 74 72Z"/>
    <path d="M170 119V20h70c29 0 47 16 47 41s-18 41-47 41h-37v17h-33Zm33-47h34c11 0 17-4 17-12s-6-12-17-12h-34v24Z"/>
    <path d="M297 88c13 9 31 14 49 14 14 0 21-3 21-9 0-5-5-7-27-10-34-4-48-15-48-34 0-20 20-32 53-32 20 0 39 4 54 12l-12 25c-12-6-26-9-40-9-14 0-21 2-21 7 0 4 5 6 25 9 36 5 50 15 50 35 0 21-20 34-55 34-26 0-49-6-65-17l16-25Z"/>
  </g>
  <g fill="#e6a51e">
    <circle cx="426" cy="26" r="6"/><circle cx="431" cy="43" r="8"/><circle cx="436" cy="64" r="10"/><circle cx="441" cy="88" r="12"/><circle cx="436" cy="112" r="10"/><circle cx="430" cy="132" r="7"/>
    <circle cx="453" cy="52" r="6"/><circle cx="468" cy="62" r="8"/><circle cx="486" cy="74" r="10"/><circle cx="507" cy="87" r="12"/><circle cx="486" cy="100" r="10"/><circle cx="468" cy="113" r="8"/><circle cx="453" cy="123" r="6"/>
  </g>
  <text x="18" y="151" fill="#861b36" font-family="Arial, sans-serif" font-size="18" font-weight="700" letter-spacing="2">PROJECT MANAGEMENT  |  QS</text>
  <text x="540" y="87" fill="#66737c" font-family="Arial, sans-serif" font-size="14" font-weight="700" letter-spacing="1">APS VIỆT NAM</text>
</svg>
